<?xml version="1.0" encoding="utf-8"?>
<!-- Generator: Adobe Illustrator 21.1.0, SVG Export Plug-In . SVG Version: 6.00 Build 0)  -->
<svg version="1.1" id="Calque_1" xmlns="http://www.w3.org/2000/svg" xmlns:xlink="http://www.w3.org/1999/xlink" x="0px" y="0px"
	 viewBox="0 0 179.5 179.5" style="enable-background:new 0 0 179.5 179.5;" xml:space="preserve">
<style type="text/css">
	.st0{fill:#FFFFFF;}
</style>
<g transform="translate(0,-952.36218)">
	<path class="st0" d="M47.8,1011.1c-1.1,0-2,0.9-2,2v58c0,1.1,0.9,2,2,2h84c1.1,0,2-0.9,2-2v-58c0-1.1-0.9-2-2-2H47.8z M52.8,1015.1
		h73.9l-37,35.2L52.8,1015.1z M49.8,1017.8l24.7,23.5l-24.7,25V1017.8z M129.8,1017.8v48.5l-24.7-25L129.8,1017.8z M77.3,1044
		l11,10.5c0.8,0.7,2,0.7,2.8,0l11-10.5l24.8,25.1H52.5L77.3,1044z"/>
</g>
<path class="st0" d="M89.8,6c46.2,0,83.8,37.6,83.8,83.8s-37.6,83.8-83.8,83.8S6,135.9,6,89.8S43.6,6,89.8,6 M89.8,0
	C40.2,0,0,40.2,0,89.8s40.2,89.8,89.8,89.8s89.8-40.2,89.8-89.8S139.3,0,89.8,0L89.8,0z"/>
</svg>
