<?xml version="1.0" encoding="utf-8"?>
<!-- Generator: Adobe Illustrator 21.1.0, SVG Export Plug-In . SVG Version: 6.00 Build 0)  -->
<svg version="1.1" id="Mode_Isolation" xmlns="http://www.w3.org/2000/svg" xmlns:xlink="http://www.w3.org/1999/xlink" x="0px"
	 y="0px" viewBox="0 0 817.9 154.2" style="enable-background:new 0 0 817.9 154.2;" xml:space="preserve">
<style type="text/css">
	.st0{fill:#FFFFFF;}
</style>
<g>
	<g>
		<rect x="122.8" y="0" class="st0" width="22.3" height="154.2"/>
		<polygon class="st0" points="642.1,123.5 530.4,0 510,0 510,154.2 515.8,154.2 515.8,19.1 642.3,154.2 647.9,154.2 647.9,0 
			642.1,0 		"/>
		<path class="st0" d="M417.9,0h-9.3l-71.9,154.2h6.3l25.1-53.8h70.3l23.6,53.8h23.6L417.9,0z M436.1,95.2h-65.7l33.8-72.5
			L436.1,95.2z"/>
		<path class="st0" d="M794.3,154.2h23.6L750.2,0h-9.3L669,154.2h6.3l25.1-53.8h70.3L794.3,154.2z M702.8,95.2l33.8-72.5l31.8,72.5
			H702.8z"/>
		<path class="st0" d="M283,72.8c17.9-5,28.5-16.1,28.5-34.8c0-26.7-23.3-37.9-53.9-37.9c-1.4,0-72.5,0-72.5,0v154.2
			c0,0,74.8,0,77.3,0c33.7,0,59.4-12.3,59.4-41.7C321.9,89.8,305.7,77.3,283,72.8z M207.4,5.2c0,0,47.3,0,49.3,0
			c20.8,0,34,8.9,34,32.8s-9.8,32.8-34,32.8h-49.3L207.4,5.2L207.4,5.2z M253.5,149L253.5,149h-46.1V75.9h49.2
			c23.1,0,43,8.9,43,36.6S280.1,149,253.5,149z"/>
	</g>
	<g>
		<rect y="0" class="st0" width="88.8" height="70.8"/>
		<rect y="83.4" class="st0" width="88.8" height="70.8"/>
	</g>
</g>
</svg>
