<?xml version="1.0" encoding="utf-8"?>
<!-- Generator: Adobe Illustrator 21.1.0, SVG Export Plug-In . SVG Version: 6.00 Build 0)  -->
<svg version="1.1" id="Mode_Isolation" xmlns="http://www.w3.org/2000/svg" xmlns:xlink="http://www.w3.org/1999/xlink" x="0px"
	 y="0px" viewBox="0 0 154.2 817.9" style="enable-background:new 0 0 154.2 817.9;" xml:space="preserve">
<style type="text/css">
	.st0{fill:#FFFFFF;}
</style>
<g>
	<g>
		<rect x="-0.1" y="672.8" class="st0" width="154.2" height="22.3"/>
		<polygon class="st0" points="123.4,175.8 -0.1,287.5 -0.1,307.9 154.1,307.9 154.1,302.1 19,302.1 154.1,175.6 154.1,170 
			-0.1,170 -0.1,175.8 		"/>
		<path class="st0" d="M-0.1,400v9.3l154.2,71.9v-6.3l-53.8-25.1v-70.3l53.8-23.6v-23.6L-0.1,400z M95.1,381.8v65.7l-72.5-33.8
			L95.1,381.8z"/>
		<path class="st0" d="M154.1,23.6V0L-0.1,67.7V77l154.2,71.9v-6.3l-53.8-25.1V47.3L154.1,23.6z M95.1,115.1L22.6,81.3l72.5-31.8
			V115.1z"/>
		<path class="st0" d="M72.7,534.9c-5-17.9-16.1-28.5-34.8-28.5C11.2,506.4,0,529.7,0,560.3c0,1.4,0,72.5,0,72.5h154.2
			c0,0,0-74.8,0-77.3c0-33.7-12.3-59.4-41.7-59.4C89.7,496,77.2,512.2,72.7,534.9z M5.1,610.5c0,0,0-47.3,0-49.3
			c0-20.8,8.9-34,32.8-34s32.8,9.8,32.8,34v49.3H5.1L5.1,610.5z M148.9,564.4L148.9,564.4v46.1H75.8v-49.2c0-23.1,8.9-43,36.6-43
			S148.9,537.8,148.9,564.4z"/>
	</g>
	<g>
		<rect x="-0.1" y="729.1" class="st0" width="70.8" height="88.8"/>
		<rect x="83.3" y="729.1" class="st0" width="70.8" height="88.8"/>
	</g>
</g>
</svg>
