<?xml version="1.0" encoding="utf-8"?>
<!-- Generator: Adobe Illustrator 21.1.0, SVG Export Plug-In . SVG Version: 6.00 Build 0)  -->
<svg version="1.1" id="Calque_1" xmlns="http://www.w3.org/2000/svg" xmlns:xlink="http://www.w3.org/1999/xlink" x="0px" y="0px"
	 viewBox="0 0 817.9 269.7" style="enable-background:new 0 0 817.9 269.7;" xml:space="preserve">
<style type="text/css">
	.st0{fill:#FFFFFF;}
</style>
<g>
	<g>
		<rect x="122.8" y="0" class="st0" width="22.3" height="154.2"/>
		<polygon class="st0" points="642.1,123.5 530.4,0 510,0 510,154.2 515.8,154.2 515.8,19.1 642.3,154.2 647.9,154.2 647.9,0 
			642.1,0 		"/>
		<path class="st0" d="M417.9,0h-9.3l-71.9,154.2h6.3l25.1-53.8h70.3l23.6,53.8h23.6L417.9,0z M436.1,95.2h-65.7l33.8-72.5
			L436.1,95.2z"/>
		<path class="st0" d="M794.3,154.2h23.6L750.2,0h-9.3L669,154.2h6.3l25.1-53.8h70.3L794.3,154.2z M702.8,95.2l33.8-72.5l31.8,72.5
			H702.8z"/>
		<path class="st0" d="M283,72.8c17.9-5,28.5-16.1,28.5-34.8c0-26.7-23.3-37.9-53.9-37.9c-1.4,0-72.5,0-72.5,0v154.2
			c0,0,74.8,0,77.3,0c33.7,0,59.4-12.3,59.4-41.7C321.9,89.8,305.7,77.3,283,72.8z M207.4,5.2c0,0,47.3,0,49.3,0
			c20.8,0,34,8.9,34,32.8s-9.8,32.8-34,32.8h-49.3L207.4,5.2L207.4,5.2z M253.5,149L253.5,149h-46.1V75.9h49.2
			c23.1,0,43,8.9,43,36.6S280.1,149,253.5,149z"/>
	</g>
	<g>
		<rect y="0" class="st0" width="88.8" height="70.8"/>
		<rect y="83.4" class="st0" width="88.8" height="70.8"/>
	</g>
</g>
<g>
	<path class="st0" d="M120.8,237.6h3.9l9,26.3l8.7-26.4h2.9l8.7,26.4l9-26.3h3.7l-11.3,31.8h-3l-8.7-25.6l-8.7,25.6h-3L120.8,237.6z
		"/>
	<path class="st0" d="M175.7,237.6h3.9l9,26.3l8.7-26.4h2.9l8.7,26.4l9-26.3h3.7l-11.3,31.8h-3l-8.7-25.6l-8.7,25.6h-3L175.7,237.6z
		"/>
	<path class="st0" d="M230.6,237.6h3.9l9,26.3l8.7-26.4h2.9l8.7,26.4l9-26.3h3.7l-11.3,31.8h-3l-8.7-25.6l-8.7,25.6h-3L230.6,237.6z
		"/>
	<path class="st0" d="M282.9,264.4h4.2v4.7h-4.2V264.4z"/>
	<path class="st0" d="M300.4,237.6h3.6v14h18.2v-14h3.6v31.6h-3.6V255H304v14.2h-3.6V237.6z"/>
	<path class="st0" d="M340.4,237.6h3.6v31.6h-3.6V237.6z"/>
	<path class="st0" d="M358.6,237.6H372c3.6,0,6.5,1,8.3,2.8c1.3,1.4,2,3,2,5.1v0.1c0,4.1-2.5,6.2-5,7.3c3.7,1.1,6.8,3.3,6.8,7.6v0.1
		c0,5.4-4.6,8.6-11.5,8.6h-14L358.6,237.6L358.6,237.6z M371.5,251.6c4.3,0,7.3-1.9,7.3-5.6v-0.1c0-3.1-2.5-5.1-7-5.1h-9.6v10.9
		L371.5,251.6L371.5,251.6z M372.8,265.9c4.8,0,7.8-2.1,7.8-5.6v-0.1c0-3.4-2.9-5.4-8.4-5.4h-10v11.1H372.8z"/>
	<path class="st0" d="M408.3,237.3h3.3l14.4,31.8h-3.8l-3.7-8.3h-17.2l-3.7,8.3h-3.7L408.3,237.3z M417.1,257.6l-7.2-16.1l-7.2,16.1
		H417.1z"/>
	<path class="st0" d="M437.7,237.6h3.3l19.9,25.3v-25.3h3.5v31.6h-2.8l-20.4-25.9v25.9h-3.5V237.6z"/>
	<path class="st0" d="M490.4,237.3h3.3l14.4,31.8h-3.8l-3.7-8.3h-17.2l-3.7,8.3H476L490.4,237.3z M499.2,257.6l-7.2-16.1l-7.2,16.1
		H499.2z"/>
	<path class="st0" d="M518.8,264.4h4.2v4.7h-4.2V264.4z"/>
	<path class="st0" d="M536.6,237.6h3.6v31.6h-3.6V237.6z"/>
	<path class="st0" d="M554.8,237.6h3.6l11.5,17.2l11.5-17.2h3.6v31.6h-3.6v-25.6L570,260.5h-0.2l-11.5-16.9v25.5h-3.5V237.6z"/>
	<path class="st0" d="M599.4,237.6h3.6l11.5,17.2l11.5-17.2h3.6v31.6H626v-25.6l-11.5,16.9h-0.2l-11.5-16.9v25.5h-3.5v-31.5H599.4z"
		/>
	<path class="st0" d="M642.6,253.5L642.6,253.5c0-8.8,6.5-16.4,16.2-16.4c9.6,0,16.1,7.5,16.1,16.2v0.1c0,8.7-6.5,16.3-16.2,16.3
		S642.6,262.2,642.6,253.5z M671.1,253.5L671.1,253.5c0-7.3-5.2-13.1-12.5-13.1c-7.2,0-12.4,5.8-12.4,12.9v0.1c0,7.2,5.2,13,12.5,13
		C665.9,266.4,671.1,260.6,671.1,253.5z"/>
</g>
</svg>
