<?xml version="1.0" encoding="utf-8"?>
<!-- Generator: Adobe Illustrator 22.1.0, SVG Export Plug-In . SVG Version: 6.00 Build 0)  -->
<svg version="1.1" id="logos" xmlns="http://www.w3.org/2000/svg" xmlns:xlink="http://www.w3.org/1999/xlink" x="0px" y="0px"
	 viewBox="0 0 247.1 91.8" style="enable-background:new 0 0 247.1 91.8;" xml:space="preserve">
<style type="text/css">
	.st0{fill:#FFFFFF;}
	.st1{fill:#E11F21;}
</style>
<g>
	<g>
		<path class="st0" d="M117,31.9h14.4v3.6h-9.9v4.5h8.6v3.3h-8.6v8H117V31.9z"/>
		<path class="st0" d="M136.8,31.9h11c3.7,0,6,2.4,6,5.3c0,2.3-1,4-3.2,4.8v0.1c2.2,0.5,2.8,2.6,3,4.5c0.1,1.2,0.1,3.5,0.9,4.6h-4.5
			c-0.5-1.2-0.5-3.1-0.7-4.6c-0.3-2-1.1-2.9-3.4-2.9h-4.5v7.5h-4.5V31.9z M141.3,40.6h4.9c2,0,3.1-0.8,3.1-2.8
			c0-1.9-1.1-2.7-3.1-2.7h-4.9V40.6z"/>
		<path class="st0" d="M165.9,31.9h4.6l7.6,19.3h-4.7l-1.5-4.3h-7.6l-1.6,4.3h-4.5L165.9,31.9z M165.5,43.7h5.3l-2.6-7.1h-0.1
			L165.5,43.7z"/>
		<path class="st0" d="M182.8,31.9h4.5l8.5,12.9h0.1V31.9h4.2v19.3h-4.5L187,38.3H187v12.9h-4.2V31.9z"/>
		<path class="st0" d="M220.5,38.4c-0.3-1.9-2.2-3.4-4.5-3.4c-4,0-5.6,3.2-5.6,6.6c0,3.2,1.5,6.4,5.6,6.4c2.7,0,4.3-1.8,4.6-4.3h4.3
			c-0.5,4.8-4,7.9-9,7.9c-6.3,0-10-4.5-10-10c0-5.7,3.7-10.2,10-10.2c4.5,0,8.3,2.5,8.8,6.9H220.5z"/>
		<path class="st0" d="M230.9,31.9h15.5v3.6h-11v4.1h9.9v3.3h-9.9v4.7h11v3.6h-15.5V31.9z"/>
		<path class="st0" d="M129.3,64.6c-0.3-1.9-2.1-3.4-4.2-3.4c-3.8,0-5.2,3.2-5.2,6.6c0,3.2,1.4,6.4,5.2,6.4c2.6,0,4.1-1.8,4.4-4.3
			h4.1c-0.4,4.8-3.8,7.8-8.5,7.8c-6,0-9.5-4.4-9.5-10c0-5.7,3.5-10.1,9.5-10.1c4.3,0,7.8,2.5,8.3,6.9H129.3z"/>
		<path class="st0" d="M145.1,57.7c6,0,9.5,4.4,9.5,10.1c0,5.5-3.5,10-9.5,10s-9.5-4.4-9.5-10C135.6,62.1,139.1,57.7,145.1,57.7z
			 M145.1,74.3c3.8,0,5.3-3.2,5.3-6.4c0-3.4-1.4-6.6-5.3-6.6c-3.8,0-5.2,3.2-5.2,6.6C139.8,71,141.3,74.3,145.1,74.3z"/>
		<path class="st0" d="M157.5,58.2h4.2l8.1,12.9h0.1V58.2h4v19.2h-4.2l-8-12.8h-0.1v12.8h-4V58.2z"/>
		<path class="st0" d="M177.5,58.2h13.6v3.6h-9.3v4.4h8.1v3.3h-8.1v7.9h-4.2V58.2z"/>
		<path class="st0" d="M202.2,57.7c6,0,9.5,4.4,9.5,10.1c0,5.5-3.5,10-9.5,10c-6,0-9.5-4.4-9.5-10C192.7,62.1,196.2,57.7,202.2,57.7
			z M202.2,74.3c3.8,0,5.3-3.2,5.3-6.4c0-3.4-1.4-6.6-5.3-6.6c-3.8,0-5.2,3.2-5.2,6.6C196.9,71,198.4,74.3,202.2,74.3z"/>
		<path class="st0" d="M214.6,58.2H225c3.5,0,5.7,2.4,5.7,5.3c0,2.3-0.9,3.9-3.1,4.8v0.1c2.1,0.5,2.7,2.6,2.8,4.5
			c0.1,1.2,0.1,3.5,0.8,4.5H227c-0.5-1.2-0.5-3.1-0.7-4.6c-0.3-2-1.1-2.9-3.2-2.9h-4.2v7.5h-4.2V58.2z M218.8,66.8h4.7
			c1.9,0,2.9-0.8,2.9-2.7c0-1.9-1-2.7-2.9-2.7h-4.7V66.8z"/>
		<path class="st0" d="M237.3,61.7h-4.9v-3.6h14v3.6h-4.9v15.6h-4.2V61.7z"/>
		<g>
			<path class="st0" d="M117,6.9h2v3h0.1c1.2-2.2,3-3.6,5.9-3.6c2.4,0,4.5,1.2,5.2,3.5c1.1-2.4,3.4-3.5,5.7-3.5c4,0,6,2.1,6,6.3V25
				h-2.2V12.8c0-3-1.1-4.6-4.3-4.6c-3.8,0-4.9,3.1-4.9,6.5V25h-2.2V12.7c0-2.5-1-4.5-3.8-4.5c-3.8,0-5.4,2.9-5.4,6.6V25H117V6.9z"/>
			<path class="st0" d="M147.2,12.5c0.2-4.2,3.2-6.1,7.3-6.1c3.2,0,6.7,1,6.7,5.8v9.6c0,0.8,0.4,1.3,1.3,1.3c0.2,0,0.5-0.1,0.7-0.1
				v1.9c-0.5,0.1-0.8,0.1-1.4,0.1c-2.2,0-2.6-1.3-2.6-3.2H159c-1.5,2.3-3.1,3.7-6.6,3.7c-3.3,0-6.1-1.6-6.1-5.3
				c0-5.1,4.9-5.2,9.7-5.8c1.8-0.2,2.8-0.5,2.8-2.5c0-3-2.1-3.7-4.7-3.7c-2.7,0-4.8,1.3-4.8,4.2H147.2z M158.9,15.1L158.9,15.1
				c-0.3,0.5-1.3,0.7-1.9,0.8c-3.7,0.7-8.4,0.6-8.4,4.2c0,2.2,2,3.6,4,3.6c3.4,0,6.3-2.1,6.3-5.7V15.1z"/>
			<path class="st0" d="M166.8,0h2.2v3.5h-2.2V0z M166.8,6.9h2.2V25h-2.2V6.9z"/>
			<path class="st0" d="M185.4,12.2c-0.1-2.7-2.2-4-4.7-4c-2,0-4.3,0.8-4.3,3.1c0,2,2.2,2.7,3.7,3l2.9,0.7c2.5,0.4,5.1,1.9,5.1,5
				c0,3.9-3.9,5.4-7.2,5.4c-4.2,0-7.1-2-7.4-6.4h2.2c0.2,3,2.4,4.5,5.3,4.5c2.1,0,4.9-0.9,4.9-3.4c0-2.1-2-2.8-4-3.3l-2.8-0.6
				c-2.9-0.8-5-1.8-5-4.8c0-3.7,3.6-5.1,6.8-5.1c3.6,0,6.5,1.9,6.6,5.8H185.4z"/>
			<path class="st0" d="M208.8,16c0,5.2-3,9.6-8.5,9.6c-5.5,0-8.5-4.4-8.5-9.6c0-5.2,3-9.6,8.5-9.6C205.8,6.4,208.8,10.8,208.8,16z
				 M193.9,16c0,3.8,2.1,7.7,6.3,7.7c4.2,0,6.3-3.8,6.3-7.7s-2.1-7.7-6.3-7.7C196,8.3,193.9,12.1,193.9,16z"/>
			<path class="st0" d="M213.3,6.9h2.2V10h0.1c0.8-2.2,3.2-3.6,5.8-3.6c5.1,0,6.6,2.7,6.6,7V25h-2.2V13.7c0-3.1-1-5.5-4.6-5.5
				c-3.5,0-5.6,2.7-5.7,6.2V25h-2.2V6.9z"/>
			<path class="st0" d="M244.2,12.2c-0.1-2.7-2.2-4-4.7-4c-2,0-4.3,0.8-4.3,3.1c0,2,2.2,2.7,3.7,3l2.9,0.7c2.5,0.4,5.1,1.9,5.1,5
				c0,3.9-3.9,5.4-7.2,5.4c-4.2,0-7.1-2-7.4-6.4h2.2c0.2,3,2.4,4.5,5.3,4.5c2.1,0,4.9-0.9,4.9-3.4c0-2.1-2-2.8-4-3.3l-2.8-0.6
				c-2.9-0.8-5-1.8-5-4.8c0-3.7,3.6-5.1,6.8-5.1c3.6,0,6.5,1.9,6.6,5.8H244.2z"/>
		</g>
		<g>
			<path class="st0" d="M73.9,85c2.2,0,3.4,1.1,3.4,3.3c0,2.2-1.2,3.3-3.4,3.3h-1.8V85H73.9z M74.1,91.1c1.9,0,2.6-1.1,2.6-2.8
				c0-1.9-1.1-2.8-3-2.8h-0.9v5.5H74.1z"/>
			<path class="st0" d="M84.3,91.6V85h3.9v0.5h-3.3V88h3.2v0.5h-3.2v2.6h3.5v0.5H84.3z"/>
			<path class="st0" d="M95.4,91.6V85H97c1.3,0,2.7,0.3,2.7,1.9c0,1.6-1.4,1.9-2.7,1.9H96v2.9H95.4z M96,88.2h1.4
				c0.9,0,1.7-0.3,1.7-1.3c0-1-0.8-1.3-1.7-1.3H96V88.2z"/>
			<path class="st0" d="M107,85v4.3c0,1.2,0.7,1.9,1.8,1.9c1.1,0,1.8-0.7,1.8-1.9V85h0.6v4.3c0,1.4-0.8,2.5-2.4,2.5
				c-1.6,0-2.4-1-2.4-2.5V85H107z"/>
			<path class="st0" d="M118.6,91.6V85h0.6v6.6H118.6z"/>
			<path class="st0" d="M128.2,91.8c-1.1,0-1.9-0.8-2-1.9h0.6c0,1,0.8,1.3,1.7,1.3c0.7,0,1.6-0.4,1.6-1.3c0-0.7-0.5-1-1-1.2
				c-1.1-0.4-2.7-0.7-2.7-2.1c0-1.2,1.1-1.8,2.1-1.8c0.9,0,2,0.3,2.1,1.6H130c0-0.8-0.8-1-1.4-1c-0.7,0-1.5,0.3-1.5,1.1
				c0,1.9,3.7,1,3.7,3.3C130.7,91.3,129.5,91.8,128.2,91.8z"/>
			<path class="st0" d="M145.8,86.3c0.5-0.2,1-0.6,1.5-1h0.6v6.3h-0.6V86c-0.4,0.4-0.9,0.7-1.4,0.9V86.3z"/>
			<path class="st0" d="M155.9,90.1c0,0.8,0.6,1.1,1.4,1.1c1.4,0,1.6-2,1.6-3h0c-0.3,0.6-0.9,1-1.7,1c-1.1,0-1.9-0.8-1.9-2
				c0-1.2,0.8-2.1,2-2.1c1.8,0,2.2,1.6,2.2,3.1c0,1.7-0.4,3.5-2.4,3.5c-1.1,0-1.8-0.7-1.8-1.7H155.9z M155.9,87.3
				c0,0.8,0.5,1.4,1.4,1.4c0.9,0,1.5-0.6,1.5-1.5c0-0.9-0.6-1.5-1.5-1.5C156.4,85.7,155.9,86.4,155.9,87.3z"/>
			<path class="st0" d="M166.5,86.3c0.5-0.2,1-0.6,1.5-1h0.6v6.3h-0.6V86c-0.4,0.4-0.9,0.7-1.4,0.9V86.3z"/>
			<path class="st0" d="M176.6,90.1c0,0.8,0.6,1.1,1.4,1.1c1.4,0,1.6-2,1.6-3h0c-0.3,0.6-0.9,1-1.7,1c-1.1,0-1.9-0.8-1.9-2
				c0-1.2,0.8-2.1,2-2.1c1.8,0,2.2,1.6,2.2,3.1c0,1.7-0.4,3.5-2.4,3.5c-1.1,0-1.8-0.7-1.8-1.7H176.6z M176.6,87.3
				c0,0.8,0.5,1.4,1.4,1.4c0.9,0,1.5-0.6,1.5-1.5c0-0.9-0.6-1.5-1.5-1.5C177,85.7,176.6,86.4,176.6,87.3z"/>
		</g>
		<path class="st0" d="M65.2,88.5H6v-0.6h59.2V88.5z"/>
		<path class="st0" d="M246.4,88.5h-59.2v-0.6h59.2V88.5z"/>
		<polygon class="st1" points="50.3,7.2 50.3,11.6 41.9,16 41.9,7.2 		"/>
		<path class="st0" d="M100.1,25.7L69,6.2L23.1,30c4.4,0.2,10.6,1.4,14.5,2.5c21.2,6,33.1,22.4,33.1,22.4
			C65.9,40.8,55.9,32.3,46,27.2l23-11.1l26.8,16.7c1.6,1,3.1,3.7,3.1,5.6v28.7c0,1-0.8,1.8-1.8,1.8H40.4c-1,0-1.8-0.8-1.8-1.8V36.8
			c-0.3-0.1-0.6-0.2-0.9-0.3c-2-0.6-4.7-1.2-7.5-1.6l0,32.3c0,5.6,4.6,10.2,10.2,10.2h56.7c5.6,0,10.2-4.6,10.2-10.2V38.5
			C107.3,33.7,104.2,28.2,100.1,25.7z"/>
	</g>
	<path class="st0" d="M12.4,67.2c1.4,1.1,1.9,2.4,1.9,3.7c0,4.2-3.2,6.7-7.1,6.7C3.2,77.7,0,75.2,0,71c0-2.8,1.7-5.4,4.8-5.8v2.9
		c-1.5,0.3-2.3,1.5-2.3,2.9c0,2.7,2.3,3.7,4.7,3.7c2.3,0,4.6-1,4.6-3.7c0-2-1.1-3.1-2.9-3.3v3H6.6V65H14v1.9L12.4,67.2z M4.1,61.9
		v-2.6h1.8v0c-1.2-0.5-2.1-1.8-2.1-3.2c0-0.2,0-0.4,0.1-0.6h2.5c-0.1,0.2-0.1,0.7-0.1,1c0,2,1.4,2.7,3.2,2.7H14v2.7H4.1z M3.8,49
		c0-3.1,2.1-5.1,5.2-5.1c3.1,0,5.2,2,5.2,5.1c0,3.1-2.1,5.1-5.2,5.1C5.9,54.1,3.8,52.1,3.8,49z M12.2,49c0-1.9-1.6-2.4-3.2-2.4
		c-1.6,0-3.2,0.6-3.2,2.4c0,1.8,1.6,2.4,3.2,2.4C10.6,51.4,12.2,50.9,12.2,49z M14,31.9v2.6h-1.4v0.1c1.1,0.7,1.6,1.9,1.6,3
		c0,2.9-1.6,3.6-4.1,3.6H4.1v-2.7h5.6c1.6,0,2.4-0.5,2.4-1.7c0-1.5-0.8-2.1-2.8-2.1H4.1v-2.7H14z M4.1,28.9v-2.6h1.3v0
		c-1.1-0.7-1.5-1.7-1.5-2.9c0-3.1,2.5-4.5,5.3-4.5c2.6,0,5.1,1.5,5.1,4.3c0,1.2-0.5,2.3-1.5,3v0h4.7v2.7H4.1z M9.1,21.5
		c-1.6,0-3.2,0.6-3.2,2.4c0,1.8,1.6,2.4,3.2,2.4c1.6,0,3.1-0.6,3.1-2.4C12.2,22.1,10.7,21.5,9.1,21.5z M9.7,14
		c1.7-0.1,2.5-0.9,2.5-2.4c0-1.1-0.7-2-1.3-2.1V7c2.3,0.8,3.3,2.4,3.3,4.6c0,3.1-2.1,5.1-5.2,5.1c-3,0-5.2-2-5.2-5.1
		c0-3.4,2.8-5,5.9-4.8V14z M8,9.6c-1.4,0.2-2.1,0.8-2.1,2.2c0,1.7,1.3,2.2,2.1,2.3V9.6z"/>
</g>
</svg>
